<?xml version="1.0" encoding="UTF-8"?>
<svg width="486.8" height="59.26" version="1.1" viewBox="0 0 128.8 15.68" xmlns="http://www.w3.org/2000/svg" xmlns:cc="http://creativecommons.org/ns#" xmlns:dc="http://purl.org/dc/elements/1.1/" xmlns:rdf="http://www.w3.org/1999/02/22-rdf-syntax-ns#"><metadata><rdf:RDF><cc:Work rdf:about=""><dc:format>image/svg+xml</dc:format><dc:type rdf:resource="http://purl.org/dc/dcmitype/StillImage"/><dc:title/></cc:Work></rdf:RDF></metadata><g transform="translate(-37.62 -47.62)"><g stroke-width=".2646" aria-label="Git &amp; GitHub"><path d="m45.02 63.3q-1.866 0-3.26-0.5302-1.384-0.5302-2.307-1.502-0.9229-0.972-1.375-2.337-0.4517-1.365-0.4517-3.024 0-1.63 0.4811-2.985 0.4811-1.355 1.424-2.327 0.9426-0.972 2.347-1.512 1.404-0.54 3.25-0.54 1.257 0 2.19 0.1866 0.9426 0.1767 1.571 0.4909 0.6382 0.3142 0.9524 0.7462 0.3142 0.4222 0.3142 0.9131 0 0.3535-0.1669 0.6677-0.1669 0.3044-0.5007 0.54t-0.8149 0.3731q-0.4811 0.1276-1.119 0.1276 0-0.6087-0.1473-1.119-0.1473-0.5106-0.4615-0.8738-0.3044-0.3633-0.7757-0.5597-0.4713-0.2062-1.109-0.2062-1.1 0-1.875 0.4026-0.7658 0.4026-1.257 1.178-0.4811 0.7757-0.7069 1.915-0.216 1.129-0.216 2.582t0.2258 2.582q0.2356 1.119 0.7462 1.885 0.5204 0.7658 1.335 1.168 0.8248 0.3927 2.013 0.3927 0.3731 0 0.7462-0.02945 0.3731-0.02946 0.7266-0.108v-2.955q0-0.8051-0.3633-1.119-0.3633-0.3142-1.07-0.3142h-0.2651v-1.06h6.323v1.06h-0.2651q-0.3044 0-0.5302 0.07855-0.2258 0.06873-0.3731 0.2455-0.1473 0.1767-0.216 0.4713-0.06873 0.2847-0.06873 0.7168v3.299q-1.178 0.54-2.376 0.8149-1.198 0.2651-2.572 0.2651z"/><path d="m53.7 49.06q0-0.3829 0.1276-0.6578 0.1375-0.2749 0.3633-0.4418 0.2356-0.1767 0.54-0.2553 0.3142-0.08837 0.6775-0.08837 0.3436 0 0.6578 0.08837 0.3142 0.07855 0.5498 0.2553 0.2356 0.1669 0.3731 0.4418 0.1473 0.2749 0.1473 0.6578 0 0.3731-0.1473 0.648-0.1375 0.2749-0.3731 0.4517t-0.5498 0.2651q-0.3142 0.08837-0.6578 0.08837-0.3633 0-0.6775-0.08837-0.3044-0.08837-0.54-0.2651-0.2258-0.1767-0.3633-0.4517-0.1276-0.2749-0.1276-0.648zm-1.149 12.97q0.2258 0 0.4713-0.03927 0.2553-0.04909 0.4615-0.1866 0.216-0.1375 0.3535-0.3927 0.1473-0.2553 0.1473-0.6873v-6.107q0-0.4026-0.1473-0.6382-0.1375-0.2455-0.3535-0.3731-0.216-0.1375-0.4713-0.1767-0.2455-0.03927-0.4615-0.03927h-0.2356v-1.07h4.723v8.405q0 0.432 0.1375 0.6873 0.1473 0.2553 0.3535 0.3927 0.216 0.1375 0.4713 0.1866 0.2553 0.03927 0.4713 0.03927h0.2356v1.07h-6.392v-1.07z"/><path d="m65.37 61.68q0.3927 0 0.7462-0.04909 0.3633-0.05891 0.6775-0.1375v1.306q-0.1571 0.07855-0.432 0.1669-0.2651 0.08837-0.6284 0.1571-0.3535 0.07855-0.8051 0.1276t-0.9819 0.04909q-0.6775 0-1.227-0.1669-0.5498-0.1571-0.9328-0.5302-0.3829-0.3829-0.5891-0.9819-0.2062-0.6087-0.2062-1.492v-6.431h-1.512v-1.031q0.648 0 1.159-0.2553t0.8149-0.5891q0.6186-0.648 0.9229-1.993h1.669v2.494h2.572v1.375h-2.572v6.225q0 0.9131 0.3044 1.335 0.3142 0.4222 1.021 0.4222z"/><path d="m84.28 63.1-1.384-1.473q-0.3731 0.3731-0.8346 0.6775-0.4517 0.3044-1.001 0.5302-0.5498 0.216-1.198 0.3338-0.6382 0.1276-1.394 0.1276-1.237 0-2.19-0.2847-0.9524-0.2946-1.6-0.8444-0.648-0.5498-0.9819-1.345t-0.3338-1.807q0-0.8837 0.2749-1.502 0.2847-0.6284 0.756-1.08 0.4713-0.4615 1.09-0.7757 0.6284-0.324 1.316-0.5989-0.3927-0.4713-0.6873-0.8935-0.2847-0.432-0.4713-0.8542-0.1866-0.4222-0.2749-0.864-0.08837-0.4418-0.08837-0.9524 0-0.6677 0.2553-1.208t0.756-0.9328q0.5106-0.3927 1.267-0.5989 0.756-0.216 1.758-0.216 0.972 0 1.689 0.2258 0.7266 0.2258 1.198 0.6186 0.4811 0.3927 0.7168 0.9131 0.2455 0.5204 0.2455 1.1 0 0.6087-0.1866 1.1-0.1866 0.4909-0.5695 0.9131-0.3731 0.4124-0.9524 0.7757-0.5695 0.3633-1.355 0.7266 0.04909 0.07855 0.1473 0.1473l2.847 2.995q0.1276-0.6971 0.1669-1.375 0.03928-0.6873 0.03928-1.257v-0.8837h4.399v1.06h-0.3142q-0.3338 0-0.6578 0.03927-0.3142 0.03927-0.5891 0.1866-0.2749 0.1375-0.4909 0.4124-0.2062 0.2651-0.3338 0.7266-0.1571 0.5597-0.3731 1.198-0.2062 0.6284-0.5106 1.276l2.003 2.091q0.2847 0.3044 0.6971 0.4026 0.4124 0.09819 0.9524 0.09819h0.1866v1.07zm-7.963-3.986q0 0.5989 0.1866 1.119 0.1964 0.5106 0.54 0.8935 0.3436 0.3829 0.8346 0.6087 0.5007 0.216 1.1 0.216 1.07 0 1.807-0.3436 0.7364-0.3535 1.227-0.9426l-4.301-4.585q-0.4222 0.3044-0.6971 0.648-0.2651 0.3338-0.4222 0.7168-0.1571 0.3731-0.216 0.7953-0.05891 0.4124-0.05891 0.8738zm4.409-7.698q0-0.3535-0.06873-0.6578-0.05891-0.3044-0.216-0.5302-0.1571-0.2258-0.432-0.3535-0.2749-0.1276-0.6971-0.1276-0.3338 0-0.5891 0.1276-0.2455 0.1276-0.4026 0.3535-0.1571 0.2258-0.2356 0.54-0.07855 0.3044-0.07855 0.6677 0 0.3436 0.07855 0.6578t0.2258 0.6284q0.1571 0.3044 0.3927 0.6186t0.5498 0.6677q0.4222-0.2356 0.7069-0.5007 0.2847-0.2651 0.4517-0.5695 0.1669-0.3142 0.2356-0.6873 0.07855-0.3731 0.07855-0.8346z"/><path d="m102.2 63.3q-1.866 0-3.26-0.5302-1.384-0.5302-2.307-1.502-0.9229-0.972-1.375-2.337-0.4517-1.365-0.4517-3.024 0-1.63 0.4811-2.985 0.4811-1.355 1.424-2.327 0.9426-0.972 2.347-1.512 1.404-0.54 3.25-0.54 1.257 0 2.19 0.1866 0.9426 0.1767 1.571 0.4909 0.6382 0.3142 0.9524 0.7462 0.3142 0.4222 0.3142 0.9131 0 0.3535-0.1669 0.6677-0.1669 0.3044-0.5007 0.54t-0.8149 0.3731q-0.4811 0.1276-1.119 0.1276 0-0.6087-0.1473-1.119-0.1473-0.5106-0.4615-0.8738-0.3044-0.3633-0.7757-0.5597-0.4713-0.2062-1.109-0.2062-1.1 0-1.875 0.4026-0.7658 0.4026-1.257 1.178-0.4811 0.7757-0.7069 1.915-0.216 1.129-0.216 2.582t0.2258 2.582q0.2356 1.119 0.7462 1.885 0.5204 0.7658 1.335 1.168 0.8248 0.3927 2.013 0.3927 0.3731 0 0.7462-0.02945 0.3731-0.02946 0.7266-0.108v-2.955q0-0.8051-0.3633-1.119-0.3633-0.3142-1.07-0.3142h-0.2651v-1.06h6.323v1.06h-0.2651q-0.3044 0-0.5302 0.07855-0.2258 0.06873-0.3731 0.2455t-0.216 0.4713q-0.0687 0.2847-0.0687 0.7168v3.299q-1.178 0.54-2.376 0.8149-1.198 0.2651-2.572 0.2651z"/><path d="m110.9 49.06q0-0.3829 0.1276-0.6578 0.1375-0.2749 0.3633-0.4418 0.2356-0.1767 0.54-0.2553 0.3142-0.08837 0.6775-0.08837 0.3436 0 0.6578 0.08837 0.3142 0.07855 0.5498 0.2553 0.2356 0.1669 0.3731 0.4418 0.1473 0.2749 0.1473 0.6578 0 0.3731-0.1473 0.648-0.1375 0.2749-0.3731 0.4517t-0.5498 0.2651q-0.3142 0.08837-0.6578 0.08837-0.3633 0-0.6775-0.08837-0.3044-0.08837-0.54-0.2651-0.2258-0.1767-0.3633-0.4517-0.1276-0.2749-0.1276-0.648zm-1.149 12.97q0.2258 0 0.4713-0.03927 0.2553-0.04909 0.4615-0.1866 0.216-0.1375 0.3535-0.3927 0.1473-0.2553 0.1473-0.6873v-6.107q0-0.4026-0.1473-0.6382-0.1375-0.2455-0.3535-0.3731-0.216-0.1375-0.4713-0.1767-0.2455-0.03927-0.4615-0.03927h-0.2356v-1.07h4.723v8.405q0 0.432 0.1374 0.6873 0.1473 0.2553 0.3535 0.3927 0.216 0.1375 0.4713 0.1866 0.2553 0.03927 0.4713 0.03927h0.2356v1.07h-6.392v-1.07z"/><path d="m122.6 61.68q0.3927 0 0.7462-0.04909 0.3633-0.05891 0.6775-0.1375v1.306q-0.1571 0.07855-0.432 0.1669-0.2651 0.08837-0.6284 0.1571-0.3535 0.07855-0.8051 0.1276t-0.9818 0.04909q-0.6775 0-1.227-0.1669-0.5498-0.1571-0.9328-0.5302-0.3829-0.3829-0.5891-0.9819-0.2062-0.6087-0.2062-1.492v-6.431h-1.512v-1.031q0.648 0 1.159-0.2553 0.5106-0.2553 0.8149-0.5891 0.6186-0.648 0.9229-1.993h1.669v2.494h2.572v1.375h-2.572v6.225q0 0.9131 0.3044 1.335 0.3142 0.4222 1.021 0.4222z"/><path d="m133.4 63.1v-1.07h0.864q0.216 0 0.4026-0.03927 0.1866-0.04909 0.324-0.1866 0.1473-0.1375 0.2258-0.3927 0.0786-0.2553 0.0786-0.6873v-4.497h-5.253v4.497q0 0.432 0.0785 0.6873 0.0884 0.2553 0.2258 0.3927 0.1374 0.1375 0.324 0.1866 0.1866 0.03927 0.4026 0.03927h0.864v1.07h-6.942v-1.07h0.8444q0.216 0 0.4026-0.03927 0.1866-0.04909 0.324-0.1866 0.1473-0.1375 0.2258-0.3927 0.0785-0.2553 0.0785-0.6873v-9.681q0-0.4026-0.0884-0.6382-0.0786-0.2455-0.2258-0.3731-0.1375-0.1276-0.324-0.1669-0.1866-0.04909-0.3927-0.04909h-0.8443v-1.07h6.942v1.07h-0.864q-0.216 0-0.4026 0.04909-0.1866 0.03927-0.324 0.1767-0.1375 0.1375-0.2258 0.3927-0.0785 0.2553-0.0785 0.6873v3.878h5.253v-3.878q0-0.432-0.0786-0.6873-0.0785-0.2553-0.2258-0.3927-0.1375-0.1375-0.324-0.1767-0.1866-0.04909-0.4026-0.04909h-0.864v-1.07h6.942v1.07h-0.8444q-0.2062 0-0.3927 0.04909-0.1866 0.03927-0.3338 0.1767-0.1375 0.1375-0.216 0.3927-0.0786 0.2553-0.0786 0.6873v9.711q0 0.3927 0.0786 0.6382 0.0884 0.2356 0.2258 0.3633 0.1473 0.1178 0.324 0.1571 0.1866 0.03927 0.3927 0.03927h0.8444v1.07z"/><path d="m149.8 63.1-0.4418-1.424h-0.0982q-0.3044 0.5204-0.6578 0.8444-0.3535 0.3142-0.756 0.4909-0.4026 0.1669-0.8542 0.2258-0.4418 0.05891-0.9131 0.05891-1.571 0-2.415-0.972-0.8346-0.972-0.8346-3.004v-4.507q0-0.4418-0.0786-0.7168t-0.2455-0.432q-0.1669-0.1571-0.432-0.216-0.2553-0.05891-0.6186-0.05891h-0.0393v-1.07h4.467v6.441q0 0.648 0.0687 1.168 0.0785 0.5204 0.2553 0.8935 0.1767 0.3633 0.4713 0.5695 0.2946 0.1964 0.7364 0.1964 0.4811 0 0.8248-0.2062 0.3535-0.216 0.5695-0.6087 0.2258-0.4026 0.324-0.9622 0.108-0.5695 0.108-1.276v-3.859q0-0.4418-0.1178-0.6971t-0.3142-0.3829q-0.1964-0.1375-0.4615-0.1669-0.2651-0.03927-0.5596-0.03927h-0.0589v-1.07h4.566v8.444q0 0.4418 0.0982 0.6971 0.108 0.2455 0.2847 0.3731 0.1767 0.1276 0.4222 0.1669 0.2455 0.02945 0.54 0.02945h0.1669v1.07z"/><path d="m166.4 57.67q0 1.463-0.2749 2.523-0.2651 1.06-0.7855 1.758-0.5204 0.6873-1.296 1.021-0.7658 0.324-1.767 0.324-0.5793 0-1.051-0.1276t-0.8542-0.3633q-0.3731-0.2356-0.6677-0.5597-0.2847-0.324-0.5007-0.7168h-0.1866l-0.5596 1.571h-3.819v-1.07h0.1375q0.2847 0 0.5597-0.04909 0.2749-0.04909 0.4909-0.1964 0.216-0.1473 0.3436-0.4222 0.1375-0.2749 0.1375-0.7364v-10.4q0-0.432-0.1276-0.6873-0.1276-0.2651-0.3436-0.4124-0.216-0.1473-0.5106-0.1964-0.2847-0.04909-0.6088-0.04909h-0.0786v-1.06h4.723v3.436q0 0.3142-0.0294 0.7364-0.0196 0.4222-0.0491 0.7953-0.0393 0.4418-0.0785 0.9033h0.1375q0.432-0.7462 1.149-1.178 0.7266-0.432 1.866-0.432 0.9818 0 1.728 0.3338 0.756 0.324 1.267 1.011 0.5204 0.6775 0.7855 1.738 0.2651 1.051 0.2651 2.504zm-4.988-4.104q-0.5989 0-0.9917 0.2553-0.3927 0.2455-0.6284 0.756-0.2356 0.5106-0.3338 1.286-0.0982 0.7658-0.0982 1.807 0 0.9917 0.0982 1.767 0.0982 0.7658 0.3338 1.296 0.2356 0.5204 0.6382 0.7953 0.4026 0.2651 1.001 0.2651 0.9917 0 1.434-1.07t0.4418-3.073q0-2.052-0.4418-3.063-0.4418-1.021-1.453-1.021z"/></g></g></svg>
